<svg width="105" height="104" viewBox="0 0 105 104" fill="none" xmlns="http://www.w3.org/2000/svg">
<path d="M0.5 15C0.5 6.71573 7.21573 0 15.5 0H89.5C97.7843 0 104.5 6.71573 104.5 15V89C104.5 97.2843 97.7843 104 89.5 104H15.5C7.21573 104 0.5 97.2843 0.5 89V15Z" fill="#A9B6FF"/>
<path d="M51.8438 31.9615L51.81 31.9388L48.8363 29.9273C46.795 28.5456 44.36 27.8753 41.9041 28.0191C39.4483 28.163 37.107 29.1129 35.2387 30.7236L27.9375 37.0224C27.4275 37.4613 26.7785 37.7023 26.1075 37.7018H17.8125C17.0666 37.7018 16.3512 38 15.8238 38.5308C15.2963 39.0616 15 39.7816 15 40.5323V63.2896C15 64.8521 16.26 66.1202 17.8125 66.1202H25.6425C26.0419 66.1199 26.4367 66.2053 26.8007 66.3706C27.1648 66.5359 27.4896 66.7773 27.7537 67.0788L36.525 77.1177C37.8905 78.6795 39.7781 79.6826 41.8297 79.9365C43.8813 80.1904 45.9542 79.6775 47.655 78.4952L50.22 76.7101L52.9725 77.6536C54.6734 78.2341 56.514 78.2532 58.2264 77.7081C59.9389 77.1631 61.4338 76.0823 62.4938 74.623L64.2563 72.2001L65.4788 72.3662C67.1719 72.5957 68.8943 72.3027 70.4184 71.5257C71.9424 70.7487 73.1961 69.5244 74.0137 68.0147L74.1975 67.6751H87.1875C87.9334 67.6751 88.6488 67.3769 89.1762 66.846C89.7037 66.3152 90 65.5952 90 64.8445V40.5361C90 39.7854 89.7037 39.0654 89.1762 38.5346C88.6488 38.0038 87.9334 37.7055 87.1875 37.7055H78.8962C78.2217 37.7057 77.5696 37.462 77.0588 37.0187L70.725 31.5124C68.0831 29.2149 64.6863 27.9887 61.1957 28.0724C57.7051 28.1561 54.3702 29.5437 51.84 31.9653M45.69 34.6259L47.7975 36.0525L40.4475 43.4911C39.6554 44.2929 39.0303 45.2457 38.609 46.2938C38.1876 47.3419 37.9785 48.4641 37.9939 49.5947C38.0093 50.7252 38.2488 51.8412 38.6985 52.8773C39.1481 53.9135 39.7989 54.8488 40.6125 55.6284L40.8675 55.8699C43.905 58.7797 48.6 59.0061 51.8962 56.3983L59.6925 50.2391L69.6563 59.8817C70.1014 60.3119 70.3936 60.8775 70.4878 61.4913C70.5819 62.1051 70.4729 62.733 70.1775 63.2783L70.0837 63.4444L70.0312 63.5425L69.075 65.305C68.8024 65.8075 68.3848 66.2151 67.8773 66.4738C67.3699 66.7325 66.7963 66.8303 66.2325 66.7542L63.3487 66.3655C62.8476 66.2976 62.3376 66.3669 61.8724 66.5662C61.4071 66.7654 61.0039 67.0872 60.705 67.4977L57.9525 71.2793C57.5994 71.7656 57.1014 72.126 56.5308 72.3079C55.9603 72.4898 55.3469 72.4838 54.78 72.2907L50.6925 70.8943C50.2767 70.7519 49.8336 70.7095 49.3986 70.7704C48.9636 70.8314 48.5488 70.994 48.1875 71.2453L44.46 73.838C43.8927 74.2327 43.2011 74.4039 42.5167 74.319C41.8322 74.2341 41.2026 73.8991 40.7475 73.3776L31.9762 63.3387C31.1838 62.4331 30.2087 61.7079 29.116 61.2113C28.0232 60.7148 26.8378 60.4584 25.6388 60.4591H20.625V43.3628H26.1038C28.1172 43.3633 30.0644 42.6391 31.5938 41.3211L38.8988 35.0222C39.8327 34.2166 41.0032 33.7413 42.2311 33.669C43.4591 33.5968 44.6767 33.9316 45.6975 34.6222M76.1475 62.0178C76.1611 60.8582 75.9385 59.7081 75.4934 58.6385C75.0484 57.5688 74.3904 56.6022 73.56 55.7982L64.1063 46.65C64.5306 46.1056 64.742 45.4236 64.7007 44.733C64.6594 44.0423 64.3682 43.3908 63.882 42.9016C63.3959 42.4123 62.7486 42.1192 62.0623 42.0777C61.3761 42.0361 60.6984 42.2489 60.1575 42.6759L58.26 44.1742L58.035 44.3516L48.4275 51.9487C47.8956 52.3693 47.2309 52.5829 46.5553 52.5503C45.8796 52.5177 45.2382 52.2412 44.7487 51.7713L44.4937 51.526C44.2225 51.2662 44.0054 50.9545 43.8555 50.6092C43.7055 50.2639 43.6255 49.8919 43.6203 49.515C43.615 49.1382 43.6846 48.7641 43.8249 48.4147C43.9653 48.0653 44.1735 47.7476 44.4375 47.4803L55.5562 36.2337C57.062 34.7102 59.0857 33.8178 61.2194 33.7366C63.353 33.6553 65.4379 34.3912 67.0537 35.7959L73.38 41.2984C74.9139 42.6314 76.8734 43.3642 78.9 43.3628H84.375V62.0178H76.1475Z" fill="white"/>
</svg>
