<svg width="104" height="104" viewBox="0 0 104 104" fill="none" xmlns="http://www.w3.org/2000/svg">
<path d="M0 15C0 6.71573 6.71573 0 15 0H89C97.2843 0 104 6.71573 104 15V89C104 97.2843 97.2843 104 89 104H15C6.71573 104 0 97.2843 0 89V15Z" fill="#A9B6FF"/>
<path d="M51.9968 46.9257C59.7082 46.9257 65.9596 40.6743 65.9596 32.9628C65.9596 25.2514 59.7082 19 51.9968 19C44.2853 19 38.0339 25.2514 38.0339 32.9628C38.0339 40.6743 44.2853 46.9257 51.9968 46.9257Z" stroke="white" stroke-width="5" stroke-linecap="round"/>
<path d="M67.2068 32.9629C67.8136 31.8957 68.6254 30.9591 69.5956 30.2069C70.5658 29.4548 71.6752 28.902 72.86 28.5803C74.0447 28.2587 75.2813 28.1745 76.4987 28.3328C77.7161 28.491 78.8901 28.8885 79.9533 29.5023C81.0164 30.1161 81.9477 30.9342 82.6933 31.9093C83.439 32.8845 83.9845 33.9976 84.2983 35.1844C84.612 36.3712 84.688 37.6084 84.5217 38.8247C84.3554 40.041 83.9501 41.2124 83.3292 42.2714C82.0861 44.392 80.0546 45.9348 77.6782 46.563C75.3018 47.1913 72.7733 46.8542 70.6445 45.6251C68.5158 44.396 66.9596 42.3748 66.3155 40.0026C65.6715 37.6304 65.9919 35.0997 67.2068 32.9629ZM20.664 32.9629C21.2708 31.8957 22.0826 30.9591 23.0528 30.2069C24.023 29.4548 25.1324 28.902 26.3172 28.5803C27.5019 28.2587 28.7385 28.1745 29.9559 28.3328C31.1733 28.491 32.3473 28.8885 33.4105 29.5023C34.4736 30.1161 35.4048 30.9342 36.1505 31.9093C36.8962 32.8845 37.4417 33.9976 37.7554 35.1844C38.0692 36.3712 38.1452 37.6084 37.9788 38.8247C37.8125 40.041 37.4073 41.2124 36.7864 42.2714C35.5433 44.392 33.5118 45.9348 31.1354 46.563C28.7589 47.1913 26.2305 46.8542 24.1017 45.6251C21.973 44.396 20.4168 42.3748 19.7727 40.0026C19.1287 37.6304 19.4491 35.0997 20.664 32.9629Z" stroke="white" stroke-width="5"/>
<path d="M75.4999 65C89.3514 65 93.3067 74.6938 94.4352 80.2342C94.8579 82.29 93.1555 84 91.0111 84H59.9888C57.8483 84 56.142 82.29 56.5647 80.2342C57.6931 74.69 61.6485 65 75.4999 65Z" stroke="white" stroke-width="5" stroke-linecap="round"/>
<path d="M32.4999 65C46.3514 65 50.3067 74.6938 51.4352 80.2342C51.8579 82.29 50.1555 84 48.0111 84H16.9888C14.8483 84 13.142 82.29 13.5647 80.2342C14.6931 74.69 18.6485 65 32.4999 65Z" stroke="white" stroke-width="5" stroke-linecap="round"/>
<path d="M51.9969 60.8885C68.622 60.8885 73.3694 72.7616 74.7238 79.5476C75.2311 82.0655 73.1878 84.16 70.614 84.16H33.3798C30.8106 84.16 28.7627 82.0655 29.27 79.5476C30.6244 72.757 35.3718 60.8885 51.9969 60.8885Z" stroke="white" stroke-width="5" stroke-linecap="round"/>
</svg>
