<svg width="105" height="104" viewBox="0 0 105 104" fill="none" xmlns="http://www.w3.org/2000/svg">
<path d="M0.5 15C0.5 6.71573 7.21573 0 15.5 0H89.5C97.7843 0 104.5 6.71573 104.5 15V89C104.5 97.2843 97.7843 104 89.5 104H15.5C7.21573 104 0.5 97.2843 0.5 89V15Z" fill="#A9B6FF"/>
<path d="M60.2022 74.6776V81.7597C60.2022 85.7583 56.9596 89 52.9595 89C48.9974 89 45.7709 85.8178 45.7172 81.8575L45.6201 74.6776M60.2022 74.6776H45.6201M60.2022 74.6776C60.2022 72.2109 61.771 70.0682 63.8408 68.7253C69.1228 65.2985 72.5997 59.4686 72.5997 52.8532C72.5997 42.3064 63.7631 33.7566 52.8627 33.7566C41.9625 33.7566 33.1259 42.3064 33.1259 52.8532C33.1259 59.4682 36.6023 65.2978 41.8836 68.7246C43.9631 70.0739 45.5616 72.2002 45.6201 74.6776M52.8627 23.8919V16M82.4679 53.4865H90.3628M73.7959 74.413L79.3783 79.9935M15.3628 53.4865H23.2575M26.3466 26.9795L31.9289 32.5598M31.9277 74.412L26.3453 79.9924M79.379 26.9798L73.7964 32.5603" stroke="#FFF7F7" stroke-width="6.39627" stroke-linecap="round" stroke-linejoin="round"/>
</svg>
