<svg width="105" height="104" viewBox="0 0 105 104" fill="none" xmlns="http://www.w3.org/2000/svg">
<path d="M0.5 15C0.5 6.71573 7.21573 0 15.5 0H89.5C97.7843 0 104.5 6.71573 104.5 15V89C104.5 97.2843 97.7843 104 89.5 104H15.5C7.21573 104 0.5 97.2843 0.5 89V15Z" fill="#A9B6FF"/>
<path d="M75.1034 40.7931C79.8621 39.6034 82.2414 36.6662 82.2414 32.4655V24.1379C82.2414 22.8246 81.1754 21.7586 79.8621 21.7586H77.4828M27.5172 21.7586H25.1379C23.8246 21.7586 22.7586 22.8246 22.7586 24.1379V32.4655C22.7586 36.6817 25.1379 39.6034 29.8966 40.7931M44.1724 71.7241C46.5517 68.1552 46.5517 64.5862 46.5517 64.5862C46.5517 50.3103 38.2241 49.1207 34.6552 40.7931C34.6552 40.7931 32.2759 36.0345 32.2759 21.7586V17H72.7241V21.7586C72.7241 36.0345 70.3448 40.7931 70.3448 40.7931C66.7759 49.1207 58.4483 50.3103 58.4483 64.5862C58.4483 64.5862 58.4483 68.1552 60.8276 71.7241M83.431 44.3621V51.5M79.8621 47.931H87M77.4828 69.3448V74.1034M75.1034 71.7241H79.8621M32.2759 63.3966V65.7759M31.0862 64.5862H33.4655M20.3793 57.4483V62.2069M18 59.8276H22.7586M46.5517 81.2414H58.3745M50.3693 31.2759H45.3621L49.6746 34.7211L47.7414 39.6034L52.5976 37.0576L57.2586 39.6034L55.5491 34.7461L59.6379 31.2759H54.6568L52.5 26.5172L50.3693 31.2759ZM39.2651 76.4828L36.8858 86H67.9655L65.5862 76.4828H39.2651Z" stroke="#FDFDFF" stroke-width="3.49222" stroke-linecap="round" stroke-linejoin="round"/>
</svg>
