<svg width="105" height="104" viewBox="0 0 105 104" fill="none" xmlns="http://www.w3.org/2000/svg">
<path d="M0.5 15C0.5 6.71573 7.21573 0 15.5 0H89.5C97.7843 0 104.5 6.71573 104.5 15V89C104.5 97.2843 97.7843 104 89.5 104H15.5C7.21573 104 0.5 97.2843 0.5 89V15Z" fill="#A9B6FF"/>
<path d="M56.5336 24.9615H20.6538C19.95 24.9615 19.275 25.2411 18.7773 25.7388C18.2796 26.2365 18 26.9116 18 27.6154V70.0769C18 70.7808 18.2796 71.4558 18.7773 71.9535C19.275 72.4512 19.95 72.7308 20.6538 72.7308H84.3457C85.0495 72.7308 85.7245 72.4512 86.2222 71.9535C86.7199 71.4558 86.9995 70.7808 86.9995 70.0769V64.7692M47.1921 72.7308L41.8844 86M57.8074 72.7308L63.1151 86M36.5768 86H68.4227" stroke="white" stroke-width="5" stroke-linecap="round" stroke-linejoin="round"/>
<path d="M86.5961 28.7937C86.1106 27.4124 85.2077 26.2163 84.0124 25.3709C82.817 24.5255 81.3884 24.0727 79.9243 24.0752H74.4468C72.8868 24.0713 71.3806 24.6449 70.2183 25.6854C69.056 26.7259 68.3199 28.1598 68.1518 29.7108C67.9837 31.2617 68.3955 32.82 69.3079 34.0854C70.2203 35.3508 71.5688 36.2337 73.0934 36.5642L81.437 38.39C83.1417 38.7641 84.6483 39.7546 85.6674 41.1714C86.6865 42.5882 87.1465 44.3315 86.9589 46.0667C86.7714 47.8019 85.9496 49.4067 84.6513 50.5731C83.353 51.7394 81.6696 52.3852 79.9243 52.3864H75.2005C72.1221 52.3864 69.5001 50.4172 68.5288 47.6625M77.5624 24.0752V17M77.5624 59.4615V52.3864" stroke="white" stroke-width="5" stroke-linecap="round" stroke-linejoin="round"/>
</svg>
